<?xml version="1.0" encoding="UTF-8"?>
<svg width="38px" height="41px" viewBox="0 0 38 41" version="1.1" xmlns="http://www.w3.org/2000/svg" xmlns:xlink="http://www.w3.org/1999/xlink">
    <!-- Generator: Sketch 59.1 (86144) - https://sketch.com -->
    <title>alertsicon</title>
    <desc>Created with Sketch.</desc>
    <defs>
        <linearGradient x1="10.174%" y1="101.226%" x2="85.901%" y2="32.035%" id="linearGradient-1">
            <stop stop-color="#0069FF" stop-opacity="0.3" offset="0%"></stop>
            <stop stop-color="#0069FF" stop-opacity="0" offset="100%"></stop>
        </linearGradient>
    </defs>
    <g id="Page-1" stroke="none" stroke-width="1" fill="none" fill-rule="evenodd">
        <g id="alertsicon" transform="translate(1.000000, 1.000000)">
            <path d="M29.857,26.73 L27.67,26.73 L27.67,17.122 C27.67,10.939 22.818,5.612 16.635,5.422 C10.357,5.422 5.125,10.463 5.125,16.742 L5.125,26.729 L3.034,26.729 C1.796,26.73 0.75,27.776 0.75,29.012 L0.75,30.344 C0.75,31.58 1.796,32.627 3.033,32.627 L29.953,32.627 C31.189,32.627 32.235,31.58 32.235,30.344 L32.235,29.012 C32.14,27.776 31.094,26.729 29.857,26.729 L29.857,26.73 Z" id="Path" fill="url(#linearGradient-1)" fill-rule="nonzero"></path>
            <g id="Group" opacity="0.4" transform="translate(24.000000, 0.000000)" fill="#0069FF" fill-rule="nonzero">
                <path d="M4.05,0.666 L2.433,0 L0.91,3.615 C1.48,3.9 1.956,4.28 2.432,4.661 L4.049,0.666 L4.05,0.666 Z M12.135,13.412 L7.76,13.222 C7.855,13.792 8.045,14.363 8.045,15.029 L12.04,15.124 L12.135,13.412 L12.135,13.412 Z M10.138,6.659 L9.187,5.137 L5.287,7.705 C5.667,8.18 5.952,8.656 6.237,9.227 L10.137,6.659 L10.138,6.659 Z" id="Shape"></path>
            </g>
            <g id="Group" stroke-width="2">
                <path d="M13.591,5.802 L13.591,3.805 C13.591,2.283 14.828,0.951 16.445,0.951 C17.967,0.951 19.299,2.188 19.299,3.805 L19.299,5.802 M20.82,32.722 L20.82,33.768 C20.82,36.146 18.823,38.144 16.445,38.144 C14.067,38.144 12.07,36.146 12.07,33.768 L12.07,32.722" id="Shape" stroke="#0069FF"></path>
                <path d="M21.201,26.73 L2.843,26.73 C1.69152927,26.7397724 0.760322687,27.6705341 0.75,28.822 L0.75,30.439 C0.75,31.58 1.701,32.532 2.843,32.532 L29.953,32.532 C31.1044659,32.5216773 32.0352276,31.5904707 32.045,30.439 L32.045,28.822 C32.0352196,27.6701435 31.1038565,26.7387804 29.952,26.729 L27.765,26.729 L27.765,16.741 C27.765,10.463 22.723,5.42194856 16.445,5.42194856 C13.439979,5.41293341 10.5554219,6.60266112 8.4305415,8.7275415 C6.30566112,10.8524219 5.11593341,13.736979 5.125,16.742 L5.125,27.11" id="Path" stroke="#120078"></path>
            </g>
        </g>
    </g>
</svg>