<?xml version="1.0" encoding="UTF-8"?>
<svg width="38px" height="42px" viewBox="0 0 38 42" version="1.1" xmlns="http://www.w3.org/2000/svg" xmlns:xlink="http://www.w3.org/1999/xlink">
    <!-- Generator: Sketch 59.1 (86144) - https://sketch.com -->
    <title>cloudfirewallicon</title>
    <desc>Created with Sketch.</desc>
    <defs>
        <linearGradient x1="49.953%" y1="97.607%" x2="49.953%" y2="-29.302%" id="linearGradient-1">
            <stop stop-color="#0069FF" stop-opacity="0.6" offset="0%"></stop>
            <stop stop-color="#0069FF" stop-opacity="0" offset="100%"></stop>
        </linearGradient>
        <linearGradient x1="49.648%" y1="99.559%" x2="49.648%" y2="4.357%" id="linearGradient-2">
            <stop stop-color="#0069FF" stop-opacity="0.6" offset="0%"></stop>
            <stop stop-color="#0069FF" stop-opacity="0" offset="100%"></stop>
        </linearGradient>
    </defs>
    <g id="Page-1" stroke="none" stroke-width="1" fill="none" fill-rule="evenodd">
        <g id="cloudfirewallicon" transform="translate(0.000000, 1.000000)">
            <path d="M32.8,21 C32.1,20.4 31.1,20 30.1,20 L4.1,20 C1.9,20 0,21.9 0,24.2 L0,32.7 C0,33.8 0.4,34.8 1.1,35.5 L4.5,39.3 L36,23.6 L32.8,21 Z" id="Path" fill="url(#linearGradient-1)" fill-rule="nonzero"></path>
            <g id="Group" transform="translate(4.000000, 24.000000)" stroke="#120078" stroke-width="2">
                <path d="M0.6,13.4 L0.6,1.9 C0.6,1 1.6,0.2 2.7,0.2 L30.3,0.2 C31.5,0.2 32.4,1 32.4,1.9 L32.4,13.4 C32.4,14.3 31.4,15.1 30.3,15.1 L2.7,15.1 C1.6,15.1 0.6,14.4 0.6,13.4 Z" id="Path" fill="#FFFFFF" fill-rule="nonzero"></path>
                <path d="M0.6,7.7 L32.5,7.7 M16.3,0.1 L16.3,8.1 M8.7,7.1 L8.7,15.2 M24.2,7.1 L24.2,15.2" id="Shape"></path>
            </g>
            <path d="M19.4,0.2 C19.4,0.2 12.3,5.4 12.3,10.7 C12.3,14.6 15.5,17.8 19.4,17.8 C23.3,17.8 26.5,14.6 26.5,10.7 C26.5,5.7 19.4,0.2 19.4,0.2 Z" id="Path" fill="#FFFFFF" fill-rule="nonzero"></path>
            <path d="M19.4,0.9 C19.4,0.9 12.8,5.8 12.8,10.7 C12.8,14.4 15.8,17.3 19.4,17.3 C23.1,17.3 26,14.3 26,10.7 C26,5.9 19.4,0.9 19.4,0.9 Z" id="Path" fill="url(#linearGradient-2)" fill-rule="nonzero"></path>
            <path d="M19.4,0.2 C19.4,0.2 12.3,5.4 12.3,10.7 C12.3,14.6 15.5,17.8 19.4,17.8 C23.3,17.8 26.5,14.6 26.5,10.7 C26.5,5.7 19.4,0.2 19.4,0.2 Z" id="Path" stroke="#0069FF" stroke-width="2"></path>
            <path d="M19.4,9.8 C19.4,9.8 16.8,11.7 16.8,13.7 C16.8,15.2 18,16.3 19.4,16.3 C20.9,16.3 22,15.1 22,13.7 C22,11.8 19.4,9.8 19.4,9.8 Z" id="Path" stroke="#120078" stroke-width="2" fill="#FFFFFF" fill-rule="nonzero"></path>
        </g>
    </g>
</svg>