<?xml version="1.0" encoding="UTF-8"?>
<svg width="41px" height="41px" viewBox="0 0 41 41" version="1.1" xmlns="http://www.w3.org/2000/svg" xmlns:xlink="http://www.w3.org/1999/xlink">
    <!-- Generator: Sketch 59.1 (86144) - https://sketch.com -->
    <title>backupsnapshoticon</title>
    <desc>Created with Sketch.</desc>
    <defs>
        <linearGradient x1="50%" y1="99.791%" x2="50%" y2="0.47%" id="linearGradient-1">
            <stop stop-color="#0069FF" stop-opacity="0.3" offset="0%"></stop>
            <stop stop-color="#0069FF" stop-opacity="0" offset="100%"></stop>
        </linearGradient>
    </defs>
    <g id="Page-1" stroke="none" stroke-width="1" fill="none" fill-rule="evenodd">
        <g id="backupsnapshoticon" transform="translate(0.000000, 1.000000)">
            <path d="M39.1,38.5 L2.2,38.5 C1.70294373,38.5 1.3,38.0970563 1.3,37.6 L1.3,1.1 C1.3,0.602943725 1.70294373,0.2 2.2,0.2 L39.1,0.2 C39.5970563,0.2 40,0.602943725 40,1.1 L40,37.6 C40,38.0970563 39.5970563,38.5 39.1,38.5 Z" id="Path" fill="url(#linearGradient-1)" fill-rule="nonzero"></path>
            <path d="M20.4,6.4 C20.4,6.4 9.4,12.8 9.4,21.3 C9.3438084,24.2713276 10.4718962,27.1429644 12.5354634,29.2815704 C14.5990306,31.4201764 17.4285606,32.6500708 20.4,32.7 C23.3714394,32.6500708 26.2009694,31.4201764 28.2645366,29.2815704 C30.3281038,27.1429644 31.4561916,24.2713276 31.4,21.3 C31.4,13 20.4,6.4 20.4,6.4 L20.4,6.4 Z" id="Path" stroke="#0069FF" stroke-width="2" fill="#FFFFFF" fill-rule="nonzero"></path>
            <g id="Group" stroke="#120078" stroke-width="2">
                <path d="M39.7,8.8 L39.7,1.6 C39.7225288,0.745883952 39.0537923,0.0325649752 38.2,1.11022302e-16 L31.3,1.11022302e-16 M9.5,9.1344033e-18 L2.6,9.1344033e-18 C2.17401301,-0.00542724924 1.7638858,0.161400337 1.46264307,0.46264307 C1.16140034,0.763885803 0.994572751,1.17401301 1,1.6 L1,8.7 M1,30.2 L1,37.3 C0.975324871,37.740635 1.1326107,38.1720814 1.43507954,38.4934545 C1.73754839,38.8148277 2.15867937,38.9979492 2.6,39 L9.5,39 M31.2,39 L38.1,39 C38.525987,39.0054272 38.9361142,38.8385997 39.2373569,38.5373569 C39.5385997,38.2361142 39.7054272,37.825987 39.7,37.4 L39.7,30.3" id="Shape"></path>
            </g>
            <g id="Group" transform="translate(15.000000, 16.000000)" stroke="#120078" stroke-width="2">
                <path d="M5.4,0.3 L5.4,10.6 M0.4,5.5 L10.3,5.5" id="Shape"></path>
            </g>
        </g>
    </g>
</svg>