<?xml version="1.0" encoding="UTF-8"?>
<svg width="41px" height="40px" viewBox="0 0 41 40" version="1.1" xmlns="http://www.w3.org/2000/svg" xmlns:xlink="http://www.w3.org/1999/xlink">
    <!-- Generator: Sketch 59.1 (86144) - https://sketch.com -->
    <title>spacesicon</title>
    <desc>Created with Sketch.</desc>
    <defs>
        <linearGradient x1="0%" y1="50%" x2="100%" y2="50%" id="linearGradient-1">
            <stop stop-color="#0069FF" stop-opacity="0.4" offset="0%"></stop>
            <stop stop-color="#0069FF" stop-opacity="0" offset="100%"></stop>
        </linearGradient>
    </defs>
    <g id="Page-1" stroke="none" stroke-width="1" fill="none" fill-rule="evenodd">
        <g id="spacesicon" fill-rule="nonzero">
            <path d="M7.93,8.1 C8.325,8.12 8.71,7.978 9,7.71 C9.31195261,7.43789114 9.49068375,7.04395313 9.49,6.63 C9.50905441,6.23541881 9.36849243,5.84977439 9.1,5.56 C8.83556345,5.2829172 8.48100676,5.10918441 8.1,5.07 L8,5.07 C7.22713315,5.058637 6.58713304,5.667526 6.56,6.44 C6.55424737,6.84181532 6.71324484,7.22846825 7,7.51 C7.18,7.86 7.536,8.086 7.93,8.1 L7.93,8.1 Z M3.83,14.15 C4.22363226,14.1985157 4.6192425,14.0765704 4.91724872,13.8148599 C5.21525493,13.5531493 5.38727192,13.1766014 5.39,12.78 C5.40905441,12.3854188 5.26849243,11.9997744 5,11.71 C4.73434728,11.3951485 4.34192485,11.215441 3.93,11.22 L3.83,11.22 C3.45430141,11.2065243 3.08877773,11.3436399 2.81463252,11.6008857 C2.5404873,11.8581316 2.38042337,12.2142043 2.37,12.59 C2.34624065,12.9852811 2.48745573,13.3727174 2.76,13.66 C3.04,13.956 3.423,14.132 3.83,14.15 L3.83,14.15 Z M4,19.9 C4.02375935,19.5047189 3.88254427,19.1172826 3.61,18.83 C3.34348335,18.5162876 2.95162677,18.3368393 2.54,18.34 L2.44,18.34 C2.06497607,18.3129855 1.69771328,18.456218 1.44,18.73 C1.12648501,18.9660726 0.944444868,19.3375831 0.95,19.73 C0.93,20.125 1.072,20.51 1.34,20.8 C1.608,21.111 1.999,21.29 2.41,21.29 C3.21900429,21.3056259 3.90738151,20.703837 4,19.9 L4,19.9 Z M4,25.46 L3.93,25.46 C3.55541123,25.4358293 3.18931835,25.5786055 2.93,25.85 C2.61804739,26.1221089 2.43931625,26.5160469 2.44,26.93 C2.42630733,27.3274422 2.57422636,27.7134748 2.85,28 C3.122,28.312 3.516,28.49 3.93,28.49 C4.325,28.51 4.71,28.368 5,28.1 C5.31728186,27.823331 5.49653919,27.4209166 5.49,27 C5.50115787,26.1643375 4.83557566,25.4764203 4,25.46 Z M8.22,31.61 L8.12,31.61 C7.74165957,31.5992569 7.37468633,31.7400018 7.1005606,32.0009845 C6.82643487,32.2619672 6.66784383,32.6215884 6.66,33 C6.64,33.395 6.782,33.78 7.05,34.07 C7.31651665,34.3837124 7.70837323,34.5631607 8.12,34.56 C8.51731089,34.5772914 8.90540297,34.437147 9.2,34.17 C9.81646808,33.5921149 9.85649804,32.6269482 9.29,32 C8.97108405,31.7834935 8.60343566,31.6494908 8.22,31.61 L8.22,31.61 Z M14.27,35.51 L14.17,35.51 C13.7949761,35.4829855 13.4277133,35.626218 13.17,35.9 C12.860391,36.179786 12.6917317,36.5831016 12.71,37 C12.6862407,37.3952811 12.8274557,37.7827174 13.1,38.07 C13.3665166,38.3837124 13.7583732,38.5631607 14.17,38.56 C14.565,38.58 14.95,38.438 15.24,38.17 C15.5552778,37.9003781 15.7347452,37.5048175 15.73,37.09 C15.7545628,36.6886168 15.6136182,36.2946945 15.34,36 C15.0603565,35.7041111 14.676708,35.5284216 14.27,35.51 L14.27,35.51 Z" id="Shape" fill="#120078"></path>
            <circle id="Oval" fill="#120078" cx="27.73" cy="28.78" r="1.46"></circle>
            <circle id="Oval" fill="#120078" cx="31.73" cy="23.22" r="1.46"></circle>
            <circle id="Oval" fill="#120078" cx="31.83" cy="16.49" r="1.46"></circle>
            <circle id="Oval" fill="#120078" cx="27.73" cy="10.73" r="1.46"></circle>
            <path d="M14.07,4 C14.4597044,4.03018494 14.8450898,3.90175748 15.1387837,3.64383398 C15.4324776,3.38591048 15.6096019,3.02033903 15.63,2.63 C15.6659361,2.24066072 15.5408837,1.85358691 15.2839477,1.55886614 C15.0270116,1.26414536 14.6606031,1.08748464 14.27,1.07 L14.17,1.07 C13.7949761,1.0429855 13.4277133,1.18621798 13.17,1.46 C12.852525,1.69277961 12.669416,2.06647147 12.68,2.46 C12.6562407,2.85528114 12.7974557,3.24271737 13.07,3.53 C13.306,3.841 13.68,4.017 14.07,4 L14.07,4 Z" id="Path" fill="#120078"></path>
            <path d="M20.8,32.1 L20.8,29.56 C15.4794036,29.3904932 11.2539666,25.0282959 11.2539666,19.705 C11.2539666,14.3817041 15.4794036,10.0195068 20.8,9.85 L20.8,7.32 C14.15,7.587 8.898,13.055 8.898,19.71 C8.898,26.365 14.15,31.833 20.8,32.1 Z M21.49,0 L21.49,2.54 C30.89,2.766 38.394,10.452 38.394,19.855 C38.394,29.258 30.891,36.945 21.49,37.17 L21.49,39.71 C32.282,39.468 40.904,30.65 40.904,19.855 C40.904,9.06 32.282,0.242 21.49,0 Z" id="Shape" fill="#0069FF"></path>
            <circle id="Oval" fill="url(#linearGradient-1)" cx="21" cy="19.9" r="11.41"></circle>
        </g>
    </g>
</svg>